# xmcd
# 
# Track frame offsets:
#     150
#     18187
#     30414
#     50078
#     64024
#     78053
#     97258
#     120947
#     137455
#     157239
#     176508
#     195470
# 
# Disc length: 2836
# 
# Revision: 3
# Processed by: cddbd v1.5.2PL0 Copyright (c) Steve Scherf et al.
# Submitted via: BonkEnc v1.0
# 
DISCID=910b120c
DTITLE=Kevin Fowler - Beer, Bait and Ammo
DYEAR=2000
DGENRE=Country
TTITLE0=Speak Of The Devil
TTITLE1=ButterBean
TTITLE2=Penny For Your Thoughts
TTITLE3=Hellbent For A Heartache
TTITLE4=I Found Out The Hard Way
TTITLE5=If These Walls Could Talk
TTITLE6=Beer, Bait and Ammo
TTITLE7=Read Between The Lines
TTITLE8=You Could've Had It All
TTITLE9=J.O.B.
TTITLE10=Drinkin' Days
TTITLE11=100% Texan
EXTD=YEAR: 2000 ID3G:   2
EXTT0=
EXTT1=
EXTT2=
EXTT3=
EXTT4=
EXTT5=
EXTT6=
EXTT7=
EXTT8=
EXTT9=
EXTT10=
EXTT11=
PLAYORDER=
